<svg id="doc-logo" xmlns="http://www.w3.org/2000/svg" width="844.19" height="181" viewBox="0 0 844.19 181">
  <metadata><?xpacket begin="﻿" id="W5M0MpCehiHzreSzNTczkc9d"?>
<x:xmpmeta xmlns:x="adobe:ns:meta/" x:xmptk="Adobe XMP Core 5.6-c138 79.159824, 2016/09/14-01:09:01        ">
   <rdf:RDF xmlns:rdf="http://www.w3.org/1999/02/22-rdf-syntax-ns#">
      <rdf:Description rdf:about=""/>
   </rdf:RDF>
</x:xmpmeta>
                                                                                                    
                                                                                                    
                                                                                                    
                                                                                                    
                                                                                                    
                                                                                                    
                                                                                                    
                                                                                                    
                                                                                                    
                                                                                                    
                                                                                                    
                                                                                                    
                                                                                                    
                                                                                                    
                                                                                                    
                                                                                                    
                                                                                                    
                                                                                                    
                                                                                                    
                                                                                                    
                           
<?xpacket end="w"?></metadata>
<defs>
    <style>
      .cls-1 {
        fill: #fff;
      }

      .cls-1, .cls-2 {
        stroke: #132a4f;
        stroke-width: 10px;
      }

      .cls-2 {
        fill: #cfe0f3;
      }

      .cls-3 {
        fill: #002a68;
        fill-rule: evenodd;
      }
    </style>
  </defs>
  <ellipse class="cls-1" cx="59.75" cy="121.25" rx="54.75" ry="54.75"/>
  <path id="Rounded_Rectangle_1" data-name="Rounded Rectangle 1" class="cls-2" d="M74.5,5h0a50,50,0,0,1,50,50V171a5,5,0,0,1-5,5h0a50,50,0,0,1-50-50V10A5,5,0,0,1,74.5,5Z"/>
  <path id="documenter" class="cls-3" d="M917.692,769.607a25.993,25.993,0,0,0,21.125-10.5,37.148,37.148,0,0,0,.75,6.125c0.5,2,2.125,3,4.375,3h3.5a3.68,3.68,0,0,0,4-4v-76.25a3.68,3.68,0,0,0-4-4h-5.75a3.68,3.68,0,0,0-4,4v28.75a24.222,24.222,0,0,0-19.125-8.75c-16.625,0-28,12.625-28,30.75C890.567,756.732,901.067,769.607,917.692,769.607Zm2.25-12c-9,0-15.5-6.25-15.5-19.125,0-13.125,7.25-18.5,16.125-18.5,9.875,0,17.125,5.75,17.125,17.625v2.625C937.692,751.357,930.192,757.607,919.942,757.607Zm72.749,12c18.249,0,30.629-14.125,30.629-30.875,0-17.5-11.88-30.75-30.629-30.75-18.375,0-30.75,14-30.75,30.75C961.941,756.357,973.941,769.607,992.691,769.607Zm0-12c-11,0-16.875-8.625-16.875-18.875,0-10.125,5.875-18.75,17-18.75,10.754,0,16.624,8.625,16.624,18.75C1009.44,748.982,1003.57,757.607,992.691,757.607Zm67.129,12c9.37,0,16.62-3.25,21.87-10.125a3.973,3.973,0,0,0,.88-2.375,4.282,4.282,0,0,0-1.75-3.125l-2.25-1.75a3.787,3.787,0,0,0-2.5-1.125,4.8,4.8,0,0,0-3.13,1.625c-3,3.125-6.87,4.875-12.25,4.875-10.37,0-16.5-8.25-16.5-18.875,0-10.875,5.88-18.75,16.13-18.75,5.25,0,8.87,1.375,11.87,4.25a4.533,4.533,0,0,0,3,1.625,3.773,3.773,0,0,0,2.38-1.125l2.25-1.75a4.249,4.249,0,0,0,1.87-3,3.9,3.9,0,0,0-1-2.375c-5.37-7.125-12.62-9.625-21-9.625-17.5,0-29.37,13.25-29.37,30.75C1030.32,756.607,1041.44,769.607,1059.82,769.607Zm54.49,0a23.593,23.593,0,0,0,19.63-10,28.826,28.826,0,0,0,.87,5.625c0.5,2.125,2.13,3,4.38,3h3.62c2.5,0,4-1.375,4-4v-51a3.646,3.646,0,0,0-4-3.875h-5.87c-2.5,0-3.88,1.375-3.88,3.875v25.625c0,12.375-6.25,18.875-16.12,18.875-7.63,0-12-4.625-12-14.25v-30.25a3.646,3.646,0,0,0-4-3.875h-5.88a3.609,3.609,0,0,0-3.87,3.875v29.5C1091.19,760.607,1099.81,769.607,1114.31,769.607Zm50.38-1.375h5.87c2.5,0,4-1.375,4-4v-25.25c0-12.375,6-19,15.75-19,7.63,0,11.75,5,11.75,14.5v29.75c0,2.5,1.38,4,3.88,4h5.87c2.5,0,4-1.375,4-4v-25.25c0-12.375,5.88-19,15.88-19,7.62,0,11.62,5,11.62,14.5v29.75c0,2.5,1.38,4,3.88,4h5.87c2.5,0,4-1.375,4-4V735.107c0-18-8.12-27.125-22.75-27.125-9.62,0-17.12,4.125-21.62,11.375-3.5-7.5-10.25-11.375-19.63-11.375a23.213,23.213,0,0,0-19.5,10,41.7,41.7,0,0,0-.75-5.625c-0.5-2.125-2.12-3-4.37-3h-3.75c-2.5,0-4,1.375-4,3.875v51A3.68,3.68,0,0,0,1164.69,768.232Zm131.87,1.375c10,0,18.25-3,23.75-9.875a3.41,3.41,0,0,0,.88-2.25,4.282,4.282,0,0,0-1.75-3.125l-2-1.625a4.063,4.063,0,0,0-2.63-1.125c-1,0-1.87.625-3,1.5-3.37,3.25-7.75,5-14.62,5-10.13,0-16.63-6.625-17.63-16h39.63a3.472,3.472,0,0,0,3.62-3.625v-0.75c0-17.5-9.5-29.75-27.25-29.75-17.87,0-29.25,14.125-29.25,30.875C1266.31,756.857,1277.44,769.607,1296.56,769.607Zm-16.75-37.375c1.75-8.625,7.5-13.375,15.88-13.375s12.87,4.75,13.75,13.375h-29.63Zm58.25,36h5.88c2.5,0,4-1.375,4-4v-25.25c0-12.375,6.5-19,16.5-19,7.75,0,12.25,4.75,12.25,14.375v29.875c0,2.5,1.37,4,3.87,4h5.88a3.68,3.68,0,0,0,4-4V734.857c0-18-8.75-26.875-23.5-26.875a23.722,23.722,0,0,0-19.88,10,23.773,23.773,0,0,0-.87-5.75c-0.5-2-2-2.875-4.25-2.875h-3.88c-2.5,0-4,1.375-4,3.875v51A3.68,3.68,0,0,0,1338.06,768.232Zm94,1.375a25.179,25.179,0,0,0,15.5-4.875,3.008,3.008,0,0,0,1.25-2.375,5.17,5.17,0,0,0-.87-2.875l-1.63-2.5a3.39,3.39,0,0,0-3-1.75,6.069,6.069,0,0,0-2.37.625,16.308,16.308,0,0,1-7.25,1.75c-7.75,0-11.88-4.625-11.88-14.375V721.107h20.13a3.68,3.68,0,0,0,4-4v-3.875a3.646,3.646,0,0,0-4-3.875h-20.13v-12.25a3.68,3.68,0,0,0-4-4h-5.87c-2.5,0-3.88,1.375-3.88,4v12.25h-8a3.609,3.609,0,0,0-3.87,3.875v3.875c0,2.5,1.37,4,3.87,4h8v21.5C1408.06,761.232,1416.81,769.607,1432.06,769.607Zm49,0c10,0,18.25-3,23.75-9.875a3.41,3.41,0,0,0,.88-2.25,4.282,4.282,0,0,0-1.75-3.125l-2-1.625a4.063,4.063,0,0,0-2.63-1.125c-1,0-1.87.625-3,1.5-3.37,3.25-7.75,5-14.62,5-10.13,0-16.63-6.625-17.63-16h39.63a3.472,3.472,0,0,0,3.62-3.625v-0.75c0-17.5-9.5-29.75-27.25-29.75-17.87,0-29.25,14.125-29.25,30.875C1450.81,756.857,1461.94,769.607,1481.06,769.607Zm-16.75-37.375c1.75-8.625,7.5-13.375,15.88-13.375s12.87,4.75,13.75,13.375h-29.63Zm58.25,36h5.88c2.5,0,4-1.375,4-4v-25c0-13,7.5-18.75,16.37-18.75a30.646,30.646,0,0,1,3.5.25,4.286,4.286,0,0,0,1.25.125c1.5,0,2.5-.625,3.25-2.5l1.63-4.125a4.83,4.83,0,0,0,.5-2.125,3.045,3.045,0,0,0-2.25-3.125,17.955,17.955,0,0,0-6.38-1,21.825,21.825,0,0,0-18.75,10.25,31.347,31.347,0,0,0-.87-5.875c-0.5-2.125-2.13-3-4.38-3h-3.75c-2.5,0-4,1.375-4,3.875v51A3.68,3.68,0,0,0,1522.56,768.232Z" transform="translate(-714.75 -635.5)"/>
</svg>
