<svg id="doc-logo" xmlns="http://www.w3.org/2000/svg" width="670.31" height="176" viewBox="0 0 670.31 176">
  <metadata><?xpacket begin="﻿" id="W5M0MpCehiHzreSzNTczkc9d"?>
<x:xmpmeta xmlns:x="adobe:ns:meta/" x:xmptk="Adobe XMP Core 5.6-c138 79.159824, 2016/09/14-01:09:01        ">
   <rdf:RDF xmlns:rdf="http://www.w3.org/1999/02/22-rdf-syntax-ns#">
      <rdf:Description rdf:about=""/>
   </rdf:RDF>
</x:xmpmeta>
                                                                                                    
                                                                                                    
                                                                                                    
                                                                                                    
                                                                                                    
                                                                                                    
                                                                                                    
                                                                                                    
                                                                                                    
                                                                                                    
                                                                                                    
                                                                                                    
                                                                                                    
                                                                                                    
                                                                                                    
                                                                                                    
                                                                                                    
                                                                                                    
                                                                                                    
                                                                                                    
                           
<?xpacket end="w"?></metadata>
<defs>
    <style>
      .cls-1 {
        fill: #fff;
      }

      .cls-1, .cls-2 {
        stroke: #132a4f;
        stroke-width: 5px;
      }

      .cls-2 {
        fill: #cfe0f3;
      }

      .cls-3 {
        fill: #002a68;
        fill-rule: evenodd;
      }
    </style>
  </defs>
  <ellipse class="cls-1" cx="57.25" cy="118.75" rx="54.75" ry="54.75"/>
  <path id="Rounded_Rectangle_1" data-name="Rounded Rectangle 1" class="cls-2" d="M72,2.5h0a50,50,0,0,1,50,50v116a5,5,0,0,1-5,5h0a50,50,0,0,1-50-50V7.5A5,5,0,0,1,72,2.5Z"/>
  <path id="documenter" class="cls-3" d="M927.692,715.857a18.373,18.373,0,0,0-8.75-2.125,19.04,19.04,0,0,0-7.25,1.375,17.846,17.846,0,0,0-5.937,3.938,18.953,18.953,0,0,0-4.063,6.125,20.263,20.263,0,0,0-1.5,7.937v24.375a20.678,20.678,0,0,0,1.438,7.813,18.6,18.6,0,0,0,3.937,6.125,17.724,17.724,0,0,0,5.938,4,19.1,19.1,0,0,0,7.437,1.437,17.987,17.987,0,0,0,8.375-2,19.392,19.392,0,0,0,6.5-5.375,10.155,10.155,0,0,0,2.875,4.938q2,1.814,6,1.812v-5a3.925,3.925,0,0,1-3-1.062,6.253,6.253,0,0,1-1.437-2.938,22.278,22.278,0,0,1-.5-4.5q-0.065-2.625-.063-5.875V688.732h-5v69.375q-0.252,6.5-4.187,10.125a13.6,13.6,0,0,1-9.563,3.625q-6.375,0-10.062-3.812t-3.688-10.563V733.107q0-6.873,3.875-10.625a13.614,13.614,0,0,1,9.875-3.75,16.214,16.214,0,0,1,4.75.688,13.788,13.788,0,0,1,4,1.937v-5.5Zm51.624,59.563a18.622,18.622,0,0,0,5.937-4,18.964,18.964,0,0,0,4.063-6.125,19.932,19.932,0,0,0,1.5-7.813v-25a20.263,20.263,0,0,0-1.5-7.937,18.985,18.985,0,0,0-4.063-6.125,17.866,17.866,0,0,0-5.937-3.938,19.047,19.047,0,0,0-7.25-1.375,19.85,19.85,0,0,0-7.438,1.375,17.037,17.037,0,0,0-5.937,3.938,18.619,18.619,0,0,0-3.938,6.125,21.024,21.024,0,0,0-1.437,7.937v25a20.677,20.677,0,0,0,1.437,7.813,18.6,18.6,0,0,0,3.938,6.125,17.719,17.719,0,0,0,5.937,4,19.1,19.1,0,0,0,7.438,1.437A18.334,18.334,0,0,0,979.316,775.42Zm-21-42.938q0-6.873,3.687-10.625t10.063-3.75a13.618,13.618,0,0,1,9.875,3.75q3.873,3.75,3.875,10.625v25q0,6.75-3.875,10.563a13.489,13.489,0,0,1-9.875,3.812q-6.375,0-10.063-3.812t-3.687-10.563v-25Zm48.754,0q0-6.873,3.68-10.625t10.07-3.75a18.728,18.728,0,0,1,3.25.313,14.7,14.7,0,0,1,3.31,1,11.42,11.42,0,0,1,2.81,1.75,8.645,8.645,0,0,1,2,2.437l4-2.375a17.15,17.15,0,0,0-6.75-6.062,19.027,19.027,0,0,0-8.62-2.063,19.849,19.849,0,0,0-7.44,1.375,17.113,17.113,0,0,0-5.94,3.938,18.639,18.639,0,0,0-3.94,6.125,21,21,0,0,0-1.43,7.937v25a20.656,20.656,0,0,0,1.43,7.813,18.619,18.619,0,0,0,3.94,6.125,17.8,17.8,0,0,0,5.94,4,19.1,19.1,0,0,0,7.44,1.437,18.027,18.027,0,0,0,8.68-2.187,18.979,18.979,0,0,0,6.57-5.688l-4-2.625a10.219,10.219,0,0,1-4.88,4.188,16.309,16.309,0,0,1-6.37,1.312q-6.375,0-10.07-3.812t-3.68-10.563v-25Zm72.49-18.75v44.375q-0.24,6.5-4.18,10.125a13.63,13.63,0,0,1-9.57,3.625q-6.375,0-10.06-3.812t-3.69-10.563v-43.75h-5v43.75a20.659,20.659,0,0,0,1.44,7.813,18.619,18.619,0,0,0,3.94,6.125,17.7,17.7,0,0,0,5.94,4,19.087,19.087,0,0,0,7.43,1.437,18,18,0,0,0,8.38-2,19.411,19.411,0,0,0,6.5-5.375,10.164,10.164,0,0,0,2.87,4.938q2.01,1.814,6,1.812v-5a4.041,4.041,0,0,1-2.87-.937,5.687,5.687,0,0,1-1.5-2.625,16,16,0,0,1-.56-4.063c-0.05-1.582-.07-3.375-0.07-5.375v-44.5h-5Zm20,62.5h5v-44.25q0.255-6.375,3.38-10.125t9.12-3.75q6.375,0,9.44,3.813t3.06,10.562v43.75h5v-43.75q0-6.75,3.25-10.562t9.25-3.813q6.375,0,9.44,3.813t3.06,10.562v43.75h5v-43.75a23.287,23.287,0,0,0-1.25-7.812,18.345,18.345,0,0,0-3.5-6.125,15.617,15.617,0,0,0-5.5-4,17.722,17.722,0,0,0-7.25-1.438,14.7,14.7,0,0,0-8.87,2.625,22.323,22.323,0,0,0-6.13,6.875,22.516,22.516,0,0,0-6.06-6.875,14.645,14.645,0,0,0-8.94-2.625,11.358,11.358,0,0,0-7,2.25,39.469,39.469,0,0,0-5.5,5v-6.625h-5v62.5Zm87.5-26.25h8.75a18.98,18.98,0,0,0,7.25-1.375,19.438,19.438,0,0,0,5.94-3.75,17.856,17.856,0,0,0,4.06-5.562,15.8,15.8,0,0,0,1.5-6.813,19.934,19.934,0,0,0-1.5-7.812,18.929,18.929,0,0,0-4.06-6.125,18.712,18.712,0,0,0-5.94-4,18.306,18.306,0,0,0-7.25-1.438,19.088,19.088,0,0,0-7.43,1.438,17.662,17.662,0,0,0-5.94,4,18.639,18.639,0,0,0-3.94,6.125,20.661,20.661,0,0,0-1.44,7.812v25a21.481,21.481,0,0,0,1.44,8,17.787,17.787,0,0,0,3.94,6.125,17.3,17.3,0,0,0,5.94,3.875,19.834,19.834,0,0,0,7.43,1.375,18.807,18.807,0,0,0,8.75-2.125,17.8,17.8,0,0,0,6.63-5.75l-4-2.625a13.865,13.865,0,0,1-11.38,5.5q-6.375,0-10.06-3.75t-3.69-10.625V731.857q0-6.75,3.69-10.25t10.06-3.5a14.2,14.2,0,0,1,9.88,3.5q3.87,3.5,3.87,10.25a12.517,12.517,0,0,1-3.87,9.375,13.639,13.639,0,0,1-9.88,3.75h-8.75v5Zm40.25,26.25h5v-43.75q0-6.75,3.88-10.562a13.479,13.479,0,0,1,9.87-3.813q6.375,0,10.06,3.813t3.69,10.562v43.75h5v-43.75a20.661,20.661,0,0,0-1.44-7.812,18.616,18.616,0,0,0-3.93-6.125,17.862,17.862,0,0,0-5.94-4,19.1,19.1,0,0,0-7.44-1.438,14.2,14.2,0,0,0-7.62,2.25,28.624,28.624,0,0,0-6.13,5v-6.625h-5v62.5Zm58.13-18.75v-38.75h11.25v-5h-11.25v-25h-5v25h-5v5h5v38.75a19.115,19.115,0,0,0,1.93,8.875,18.833,18.833,0,0,0,5.13,6.25,20.448,20.448,0,0,0,7.19,3.625,19.92,19.92,0,0,0,7,.5v-5a12.294,12.294,0,0,1-5.25-.125,15.165,15.165,0,0,1-5.63-2.625,13.393,13.393,0,0,1-3.94-4.687,14.933,14.933,0,0,1-1.43-6.813h0Zm34.37-7.5h8.75a19.017,19.017,0,0,0,7.25-1.375,19.438,19.438,0,0,0,5.94-3.75,17.856,17.856,0,0,0,4.06-5.562,15.8,15.8,0,0,0,1.5-6.813,19.934,19.934,0,0,0-1.5-7.812,18.929,18.929,0,0,0-4.06-6.125,18.712,18.712,0,0,0-5.94-4,18.342,18.342,0,0,0-7.25-1.438,19.1,19.1,0,0,0-7.44,1.438,17.719,17.719,0,0,0-5.93,4,18.639,18.639,0,0,0-3.94,6.125,20.661,20.661,0,0,0-1.44,7.812v25a21.481,21.481,0,0,0,1.44,8,17.787,17.787,0,0,0,3.94,6.125,17.351,17.351,0,0,0,5.93,3.875,19.849,19.849,0,0,0,7.44,1.375,18.837,18.837,0,0,0,8.75-2.125,17.8,17.8,0,0,0,6.63-5.75l-4-2.625a13.865,13.865,0,0,1-11.38,5.5q-6.375,0-10.06-3.75t-3.69-10.625V731.857q0-6.75,3.69-10.25t10.06-3.5a14.2,14.2,0,0,1,9.88,3.5q3.87,3.5,3.87,10.25a12.517,12.517,0,0,1-3.87,9.375,13.639,13.639,0,0,1-9.88,3.75h-8.75v5Zm40.25,26.25h5V732.107a14.775,14.775,0,0,1,2.25-8.375,13.136,13.136,0,0,1,5.63-4.875,13.485,13.485,0,0,1,7.31-1,14.82,14.82,0,0,1,7.31,3.125v-5.875a16.163,16.163,0,0,0-11.75-1.5,22.129,22.129,0,0,0-10.75,6.5v-6.375h-5v62.5Z" transform="translate(-717.25 -638)"/>
</svg>
